<?xml version="1.0" encoding="UTF-8"?><svg id="Layer_1" xmlns="http://www.w3.org/2000/svg" width="1080" height="741.593" viewBox="0 0 1080 741.593"><path d="M378.11,636.982c-1.254,75.303-76.125,101.925-141.727,104.451-43.918,1.691-173.525-10.066-204.063-35.999-61.406-52.148-20.736-220.968,3.136-290.136C83.756,275.344,213.214,17.048,383.534,10.801c82.411-3.023,72.007,56.319,124.661,63.575,21.324,2.939,129.439,3.176,145.189-2.207,25.81-8.822,25.731-65.899,106.549-71.578,117.163-8.233,191.194,70.794,243.378,163.972,52.372,93.513,82.694,267.254,75.689,373.826-9.096,138.396-100.013,171.952-225.689,161.56-89.584-7.408-113.347-81.526-145.42-83.259-32.256-1.743-97.284,46.561-146.839,51.598-66.546,6.764-121.045-13.049-182.944-31.306ZM417.71,76.124c-26.506-15.501-101.08,14.249-126.896,30.715-84.726,54.04-217.482,330.985-226.33,431.278-1.942,22.008-4.401,107.792,4.459,120.362,19.034,27.005,231.512,33.775,244.944-7.194,9.039-27.571-15.599-84.415,27.534-87.682,51.231-3.88,125.023,52.327,219.628,42.121,62.03-6.692,160.999-86.972,209.676-42.317,19.419,17.815,19.415,61.445,53.865,71.418,49.509,14.332,167.547,11.4,186.556-49.405,14.515-46.431-1.149-207.682-10.474-261.792-13.721-79.615-95.172-241.805-180.72-257.671-121.124-22.464-93.255,45.234-135.46,58.093-26.736,8.146-219.512,5.422-239.33-7.678-15.015-9.925-22.166-37.159-27.449-40.248Z" style="fill:#fff;"/><path d="M339.116,295.957c9.244-7.653,22.706-12.413,34.578-13.163,143.1-9.033,157.642,257.707-19.616,216.378-75.035-17.495-57.485-168.008-14.962-203.215ZM367.593,438.906c37.331,35.609,115.265-93.276,0-83.491,2.335,15.307-3.613,80.044,0,83.491Z" style="fill:#fff;"/><path d="M710.116,305.767c48.467,48.256,1.117,254.799-117.932,164.525-38.486-29.184-27.747-124.479-5.941-160.115,14.743-24.093,104.959-23.242,123.873-4.41ZM670.719,355.497c-50.76-7.577-43.112,35.519-41.717,72.894,50.76,7.577,43.112-35.519,41.717-72.894Z" style="fill:#fff;"/></svg>