<?xml version="1.0" encoding="UTF-8"?><svg id="Layer_1" xmlns="http://www.w3.org/2000/svg" width="1145" height="252" xmlns:xlink="http://www.w3.org/1999/xlink" viewBox="0 0 1145 252"><defs><clipPath id="clippath"><path d="M196.2,91.981c-9.033-6.388-18.079-12.758-27.078-19.193-.633-.453-1.154-1.34-1.326-2.114-.928-4.177-1.677-8.393-2.615-12.568-.206-.918-.712-1.742-1.446-2.332-8.754-7.041-17.556-14.022-26.359-21.001-.43-.341-.963-.674-1.487-.754-3.239-.494-6.485-.945-9.736-1.353-6.807-.853-13.62-1.658-20.427-2.507-7.1-.885-14.188-1.946-21.391-1.246h0c-7.671-9.725-22.121-10.912-30.077.232-5.539,7.759-4.162,18.199,3.114,23.853,4.283,3.328,10.578,5.24,15.288,2.853,0,0-.172,5.893-.366,6.804l-14.548-1.639c-.124-.234-4.469-3.538-6.17-5.153-.925-.878-1.413-.864-2.143.076-2.677,3.452-5.439,6.841-8.071,10.327-5.811,7.696-10.147,16.16-13.449,25.228-3.57,9.804-5.444,19.97-7.065,30.201-1.195,7.543-1.793,15.215-.962,22.777l.002.022c.077.692.919.991,1.416.503,5.003-4.914,9.225-10.089,13.45-15.243,4.548-5.547,8.873-11.276,13.507-17.195h.001c.108.72.247,13.16.28,18.971.079,13.813.056,27.629.332,41.438.752,42.498,22.597,49.858,23.473,50.263,8.075,3.736,17.465,6.154,26.297,6.937h0c.5.044.836-.497.58-.928-.014-.023-.026-.044-.035-.061-1.816-3.241-3.676-6.458-5.45-9.721-3.347-6.157-6.281-12.503-8.488-19.165-.201-.607-.694-2.943-.694-2.943,0,0,3.378,3.856,4.883,5.168,4.875,4.248,9.879,8.348,14.739,12.612,4.004,3.513,11.044,10.324,13.002,12.161.252.236.707.674.827.768.483.379,1.076.301,1.136-.262.065-.617-.682-5.048-1.375-7.064-2.338-6.804-6.607-12.237-11.133-17.705-4.904-5.925-10.159-11.559-15.16-17.406-8.282-9.682-14.039-20.756-17.685-32.922-1.942-6.479-2.839-13.164-2.842-19.911-.005-9.168-.483-18.35.76-27.498,1.418-10.431,4.152-20.472,8.622-30.004,2.781-5.931,8.255-16.82,11.046-21.654h0s20.059-4.292,20.059-4.292c1.612,1.342,3.786,3.141,5.327,4.567,4.814,4.456,9.636,8.905,14.42,13.393.801.752,1.557.924,2.599.609,4.774-1.445,9.56-2.85,14.352-4.234,3.315-.958,6.665.247,8.437,3.153.836,1.37,1.394,2.912,2.052,4.388.381.855-1.383,1.343-1.383,1.343h0c-8.686,2.527-17.368,5.068-26.049,7.615-.049.014-.098.031-.147.05-.495.187-.566.858-.132,1.162.013.009.026.018.038.026,9.393,6.094,18.787,12.186,28.186,18.271,4.291,2.778,8.588,5.548,12.9,8.293.421.268.963.415,1.465.475,3.735.439,7.511.644,11.199,1.326,2.386.441,3.782-.421,5.09-2.152.632-.837.735-1.271-.24-1.936-3.377-2.305-4.761-5.672-4.909-9.656-.038-1.021.307-1.514,1.376-1.621,2.781-.278,5.556-.63,8.33-.972.507-.063,1.012-.144,1.581-.24.591-.099.767-.864.279-1.211l-.009-.007ZM77.602,48.417c-.06.618-.577,1.416-1.119,1.73-4.524,2.62-11.43,2.288-15.108-2.439-1.886-2.424-2.63-5.155-1.573-8.096,1.211-3.369,3.523-4.742,7.47-4.76,5.253-.024,9.452,3.658,10.275,9.147.217,1.448.197,2.959.055,4.419ZM138.241,187.044c3.77,8.659,4.373,17.576,1.317,26.591-.895,2.641-2.138,5.163-3.201,7.748-.827,2.011-5.953,4.664-6.805,5.02-.415.173-.863-.162-.815-.609.043-.395.094-.905.162-1.554.821-7.827-1.69-14.895-5.289-21.678-2.809-5.294-6.635-9.845-10.827-14.093-5.525-5.6-11.17-11.086-16.584-16.792-4.711-4.966-8.563-10.55-11.655-16.716-2.305-4.597-1.987-8.991-.005-13.367,1.435-3.168,3.345-6.121,5.058-9.162h0c.246-.432.887-.373,1.05.097.381,1.093.72,2.097,1.122,3.075,3.125,7.602,8.145,13.869,14.25,19.208,5.983,5.232,12.284,10.102,18.442,15.135,5.792,4.735,10.765,10.177,13.779,17.098ZM173.409,168.661c1.318,9.026-.09,17.688-4.556,25.608-4.5,7.981-10.442,14.877-17.659,20.596-1.166.924-2.436,1.717-3.688,2.533-.472.308-1.094-.133-.931-.673.002-.005.003-.01.005-.016,2.51-7.553,2.863-15.303,1.578-23.065-.867-5.235-2.802-10.189-5.765-14.672-.747-1.131-1.517-2.252-2.169-3.437-.273-.496-.451-1.175-.362-1.721,1.844-11.265,3.856-22.498,7.709-33.294.935-2.619,3.132-7.679,4.078-9.763.193-.426.771-.489,1.05-.114,2.262,3.028,10.064,13.895,13.8,19.746,3.547,5.556,5.948,11.688,6.909,18.272ZM27.356,179.685c.971-10.395,6.828-22.446,10.373-30.718.25-.583,1.119-.405,1.119.229l-.045,48.029c0,.616-.768.897-1.165.425-.222-.265-.476-.575-.769-.941-3.651-4.577-6.093-10-9.081-15.035-.331-.558-.494-1.34-.433-1.989ZM182.067,115.793c-1.836,1.996-6.549,6.683-10.571,6.995-9.499.736-19,1.448-28.501,2.16-1.586.119-1.763-.108-1.247-1.574,1.471-4.18,2.42-9.407,2.684-10.959.049-.287.29-.499.582-.509,3.483-.115,22.811,1.361,28.707,1.971,2.092.216,6.014.667,7.967.893.499.058.72.655.38,1.024ZM126.099,93.548c-.468,4.558,1.784,7.757,4.703,10.716,2.146,2.175,4.209,4.455,6.66,6.298,1.128.848.607,2.744-.272,3.872-.412.528-4.32.916-5.155,1.471-.9.599-.632,1.891-.092,2.735.625.977,1.301,1.784,2.299,2.398.346.213.718.411.96.738.262.354.336.819.294,1.257-.046.477-.118.982-.339,1.413-.288.561-.717.631-1.308.649-1.268.04-2.381.588-3.465,1.199-.588.331-1.156.696-1.711,1.079-.273.188-.543.381-.81.578-.098.072-.673.601-.763.571,1.698.551,3.19,0,4.646-.544,1.054-.394,1.863-.339,2.476.65.576.928.576,1.807-.305,2.573-.065.057-.113.133-.17.198-1.788,2.045-1.814,2.058-.592,4.429.717,1.391,1.175,2.799.873,4.382-.387,2.029-1.795,3.218-3.878,3.332-4.345.237-8.675-.124-12.868-1.118-3.273-.776-5.968-2.907-8.152-5.471-3.351-3.935-5.751-8.405-7.048-13.441-.216-.84-.108-1.442.545-2.088,2.85-2.821,5.654-5.723,8.042-8.923,1.821-2.441,3.4-4.688,4.718-7.475.35-.741.576-1.448,1.346-1.434,3.017.057,6.583,1.011,6.575-.801-.002-.402-.526-.794-.777-1.051-.452-.461-.936-.94-1.195-1.543-.328-.764-.094-1.596.084-2.371.307-1.34.798-2.596,1.453-3.801.316-.581.642-1.113.767-1.775.029-.156.048-.323-.016-.468-.068-.155-.218-.255-.363-.343-1.885-1.142-4.08-1.379-6.24-1.192-.245.021-.501.053-.701.196-.185.132-.296.342-.395.547-.701,1.458-1.206,3.007-1.899,4.474-.699,1.48-1.474,2.926-2.348,4.311-1.43,2.265-3.057,4.401-4.799,6.434-.646.754-1.309,1.495-1.983,2.224-3.425,3.704-8.212,7.663-11.761,11.237-4.764,5.233-7.708,9.619-7.708,9.619,0,0-2.53,2.818-4.421,6.302-.285.525-1.078.368-1.146-.226-.373-3.265-.769-10.224-.658-14.893.079-11.47,2.703-25.862,7.014-37.878,2.757-7.684,6.438-13.955,9.815-19.307,1.086-1.722,2.306-3.359,3.443-5.05.39-.581.781-.718,1.523-.542,3.316.789,6.473,1.812,9.369,3.759,5.871,3.947,8.529,9.574,9.156,16.38.125,1.356.757,2.471,1.446,3.574,1.106,1.772,2.258,3.515,3.35,5.295,1.285,2.095,2.027,4.46,1.783,6.841Z" style="fill:none;"/></clipPath><linearGradient id="linear-gradient" x1="78.926" y1="46.578" x2="79.023" y2="46.746" gradientUnits="userSpaceOnUse"><stop offset="0" stop-color="#38d4ff"/><stop offset=".96" stop-color="#21b4f9"/><stop offset=".98" stop-color="#1fb0fa"/><stop offset="1" stop-color="#1cb3fc"/></linearGradient><linearGradient id="linear-gradient-2" x1="63.07" y1="59.413" x2="63.233" y2="59.695" xlink:href="#linear-gradient"/><linearGradient id="linear-gradient-3" x1="76.348" y1="85.128" x2="62.881" y2="104.071" gradientUnits="userSpaceOnUse"><stop offset="0" stop-color="#18b4ff"/><stop offset=".92" stop-color="#40d9fb"/><stop offset=".99" stop-color="#3edafd"/><stop offset="1" stop-color="#38dcfd"/></linearGradient><linearGradient id="linear-gradient-4" x1="99.279" y1="130.424" x2="128.911" y2="130.424" gradientUnits="userSpaceOnUse"><stop offset="0" stop-color="#ea312f"/><stop offset="1" stop-color="#a5052b"/></linearGradient><linearGradient id="linear-gradient-5" x1="75.129" y1="45.207" x2="84.49" y2="61.393" xlink:href="#linear-gradient-3"/><linearGradient id="linear-gradient-6" x1="28.344" y1="104.448" x2="90.194" y2="70.605" gradientUnits="userSpaceOnUse"><stop offset="0" stop-color="#fdce00"/><stop offset="1" stop-color="#fdbe00"/></linearGradient><linearGradient id="linear-gradient-7" x1="23.27" y1="110.891" x2="48.309" y2="97.19" gradientUnits="userSpaceOnUse"><stop offset="0" stop-color="#ef6310"/><stop offset=".01" stop-color="#f76213"/><stop offset=".4" stop-color="#fc7f00"/><stop offset="1" stop-color="#fd9200"/></linearGradient><linearGradient id="linear-gradient-8" x1="81.912" y1="147.819" x2="90.515" y2="147.819" gradientUnits="userSpaceOnUse"><stop offset="0" stop-color="#b75600"/><stop offset="1" stop-color="#8b310b"/></linearGradient><linearGradient id="linear-gradient-9" x1="122.967" y1="204.125" x2="138.005" y2="204.125" xlink:href="#linear-gradient-8"/><linearGradient id="linear-gradient-10" x1="92.445" y1="150.076" x2="89.953" y2="158.666" gradientUnits="userSpaceOnUse"><stop offset="0" stop-color="#ee9000"/><stop offset="1" stop-color="#d97300"/></linearGradient><linearGradient id="linear-gradient-11" x1="124.736" y1="97.318" x2="100.154" y2="135.764" gradientUnits="userSpaceOnUse"><stop offset=".029" stop-color="#fffdd2"/><stop offset=".611" stop-color="#fff1b3"/><stop offset="1" stop-color="#fff1b3"/></linearGradient><linearGradient id="linear-gradient-12" x1="71.353" y1="170.959" x2="85.376" y2="170.959" xlink:href="#linear-gradient-6"/><linearGradient id="linear-gradient-13" x1="138.229" y1="24.137" x2="82.019" y2="121.497" xlink:href="#linear-gradient-8"/><linearGradient id="linear-gradient-14" x1="87.625" y1="63.33" x2="87.625" y2="168.221" xlink:href="#linear-gradient-10"/><linearGradient id="linear-gradient-15" x1="74.799" y1="117.742" x2="117.196" y2="27.208" xlink:href="#linear-gradient-6"/><linearGradient id="linear-gradient-16" x1="121.658" y1="125.653" x2="113.333" y2="138.674" xlink:href="#linear-gradient-7"/><linearGradient id="linear-gradient-17" x1="125.806" y1="173.168" x2="151.277" y2="150.772" xlink:href="#linear-gradient-3"/><linearGradient id="linear-gradient-18" x1="144.193" y1="203.013" x2="170.397" y2="203.013" xlink:href="#linear-gradient-8"/><linearGradient id="linear-gradient-19" x1="153.357" y1="163.345" x2="176.99" y2="163.345" xlink:href="#linear-gradient-11"/><linearGradient id="linear-gradient-20" x1="163.091" y1="178.959" x2="155.905" y2="138.732" xlink:href="#linear-gradient-6"/><linearGradient id="linear-gradient-21" x1="115.711" y1="176.066" x2="93.82" y2="133.925" xlink:href="#linear-gradient-11"/><linearGradient id="linear-gradient-22" x1="133.896" y1="189.775" x2="122.341" y2="167.53" xlink:href="#linear-gradient-6"/><linearGradient id="linear-gradient-23" x1="127.243" y1="176.607" x2="138.979" y2="207.954" xlink:href="#linear-gradient-4"/><linearGradient id="linear-gradient-24" x1="122.287" y1="203.387" x2="99.147" y2="158.841" gradientUnits="userSpaceOnUse"><stop offset="0" stop-color="#c36100"/><stop offset="1" stop-color="#fd9800"/></linearGradient><linearGradient id="linear-gradient-25" x1="167.113" y1="116.68" x2="184.78" y2="116.68" xlink:href="#linear-gradient-7"/><linearGradient id="linear-gradient-26" x1="24.648" y1="75.031" x2="57.746" y2="75.031" xlink:href="#linear-gradient-3"/><linearGradient id="linear-gradient-27" x1="52.491" y1="52.485" x2="78.114" y2="52.485" xlink:href="#linear-gradient-8"/><linearGradient id="linear-gradient-28" x1="75.758" y1="60.135" x2="80.884" y2="68.999" xlink:href="#linear-gradient-3"/><linearGradient id="linear-gradient-29" x1="50.443" y1="38.581" x2="64.365" y2="38.581" xlink:href="#linear-gradient-10"/><linearGradient id="linear-gradient-30" x1="59.096" y1="39.932" x2="80.77" y2="39.932" xlink:href="#linear-gradient-4"/><linearGradient id="linear-gradient-31" x1="54.513" y1="34.856" x2="71.936" y2="34.856" xlink:href="#linear-gradient-6"/><linearGradient id="linear-gradient-32" x1="57.779" y1="35.075" x2="89.782" y2="35.075" xlink:href="#linear-gradient-11"/><linearGradient id="linear-gradient-33" x1="155.701" y1="117.244" x2="178.625" y2="117.244" xlink:href="#linear-gradient-11"/><linearGradient id="linear-gradient-34" x1="96.116" y1="42.154" x2="141.007" y2="42.154" xlink:href="#linear-gradient-6"/><linearGradient id="linear-gradient-35" x1="125.892" y1="47.777" x2="155.182" y2="59.244" xlink:href="#linear-gradient-7"/><linearGradient id="linear-gradient-36" x1="111.233" y1="61.515" x2="164.654" y2="61.515" xlink:href="#linear-gradient-4"/><linearGradient id="linear-gradient-37" x1="87.911" y1="62.204" x2="199.412" y2="62.204" xlink:href="#linear-gradient-11"/><linearGradient id="linear-gradient-38" x1="128.477" y1="83.547" x2="154.143" y2="83.547" xlink:href="#linear-gradient-6"/><linearGradient id="linear-gradient-39" x1="148.932" y1="93.892" x2="173.484" y2="93.892" xlink:href="#linear-gradient-8"/><linearGradient id="linear-gradient-40" x1="161.343" y1="100.612" x2="190.118" y2="100.612" xlink:href="#linear-gradient-7"/><linearGradient id="linear-gradient-41" x1="170.508" y1="95.934" x2="174.578" y2="88.876" xlink:href="#linear-gradient-6"/><linearGradient id="linear-gradient-42" x1="131.421" y1="113.911" x2="139.271" y2="113.911" xlink:href="#linear-gradient-4"/><linearGradient id="linear-gradient-43" x1="130.199" y1="113.147" x2="138.972" y2="113.147" xlink:href="#linear-gradient-10"/><linearGradient id="linear-gradient-44" x1="127.099" y1="129.122" x2="135.671" y2="129.122" xlink:href="#linear-gradient-6"/><linearGradient id="linear-gradient-45" x1="130.231" y1="132.163" x2="135.824" y2="132.163" xlink:href="#linear-gradient-10"/><linearGradient id="linear-gradient-46" x1="127.416" y1="128.209" x2="135.257" y2="123.141" xlink:href="#linear-gradient-4"/><linearGradient id="linear-gradient-47" x1="78.735" y1="218.305" x2="78.04" y2="197.151" xlink:href="#linear-gradient-7"/><linearGradient id="linear-gradient-48" x1="77.079" y1="205.82" x2="101.569" y2="190.728" xlink:href="#linear-gradient-7"/><linearGradient id="linear-gradient-49" x1="92.692" y1="208.288" x2="120.391" y2="208.288" xlink:href="#linear-gradient-8"/><linearGradient id="linear-gradient-50" x1="87.575" y1="213.13" x2="92.428" y2="227.999" xlink:href="#linear-gradient-4"/><linearGradient id="linear-gradient-51" x1="103.181" y1="118.193" x2="103.181" y2="57.703" xlink:href="#linear-gradient-10"/></defs><path d="M317.724,195.402c-3.078-1.403-5.686-3.242-7.824-5.515-1.74-1.873-3.345-4.616-4.814-8.228-1.474-3.61-2.542-7.087-3.21-10.429-.671-2.539-1.204-6.219-1.604-11.034-.402-4.814-.671-8.958-.803-12.437v-19.659c0-7.754.132-14.107.402-19.058.266-6.018,1.135-12.368,2.608-19.058,1.204-6.018,3.275-11.299,6.219-15.847,2.809-4.545,6.751-7.689,11.835-9.428,2.407-.934,5.216-1.404,8.426-1.404,5.749,0,8.626,1.674,8.626,5.015,0,1.604-.637,2.908-1.906,3.912-1.272,1.003-2.777,1.504-4.513,1.504-.802,0-1.539-.065-2.206-.2-.536-.132-1.204-.201-2.007-.201-2.275,0-4.282,1.204-6.018,3.611-1.74,2.407-3.209,5.751-4.413,10.03-2.141,8.294-3.612,17.32-4.414,27.081-.536,9.096-.802,15.849-.802,20.261,0,4.549.201,10.767.601,18.656.533,7.357,1.671,13.776,3.411,19.258.933,3.209,2.037,5.788,3.31,7.722,1.27,1.939,2.909,3.58,4.915,4.917,2.272,1.472,4.614,2.204,7.021,2.204,6.419,0,9.63-10.696,9.63-32.095v-9.228c-.938-.402-2.477-.602-4.615-.602h-4.011c-4.683,0-7.022-1.535-7.022-4.614,0-1.871.633-3.31,1.906-4.312,1.268-1.004,2.908-1.505,4.915-1.505v.201h2.808c12.037,0,18.055,2.074,18.055,6.219,0,1.204-.335,3.611-1.003,7.221-.802,3.209-1.204,5.616-1.204,7.221,0,2.276.201,5.818.601,10.633l.402,10.63c0,6.421-2.241,11.47-6.721,15.148-4.481,3.678-9.93,5.515-16.349,5.515-3.745,0-7.155-.7-10.23-2.106Z" style="fill:#fff;"/><path d="M385.126,196.406c-2.943-2.209-5.351-5.182-7.221-8.928-3.88-8.154-6.287-17.051-7.221-26.68-1.204-9.094-1.806-17.854-1.806-26.279,0-1.605.066-2.94.201-4.012v-3.611c0-.667-.069-1.003-.201-1.003v-3.611l.201-14.043c.132-4.278.667-11.099,1.605-20.462.667-6.419,2.206-12.638,4.614-18.656.934-2.674,2.138-4.714,3.611-6.118,1.47-1.404,3.141-2.106,5.015-2.106,5.348,0,10.162.971,14.444,2.908,4.278,1.941,7.889,4.649,10.832,8.125,2.674,3.344,4.947,7.457,6.821,12.337,1.871,4.884,3.209,10.065,4.011,15.547.803,5.616,1.204,11.569,1.204,17.853v1.605c0,4.147.066,7.892.201,11.234l.201,11.435c0,38.516-8.961,57.775-26.88,57.775-3.48,0-6.69-1.104-9.63-3.311ZM400.573,188.382c2.006-1.937,3.542-4.579,4.614-7.924,2.539-6.82,4.078-14.174,4.615-22.066.667-6.821,1.003-12.704,1.003-17.653,0-6.018-.47-13.908-1.404-23.671-.803-10.297-1.204-17.985-1.204-23.07v-3.611c-.269-5.081-1.975-9.494-5.116-13.239-3.144-3.743-6.99-5.618-11.535-5.618s-7.557,2.608-9.027,7.824c-1.338,4.147-2.006,9.498-2.006,16.048,0,2.542.066,4.683.201,6.419v5.417l-.402,9.227c-.269,2.809-.402,5.887-.402,9.228,0,7.221.201,14.378.602,21.465.533,10.03,1.871,19.794,4.012,29.289,2.138,9.898,5.281,14.845,9.428,14.845,2.407,0,4.614-.967,6.62-2.909Z" style="fill:#fff;"/><path d="M456.539,196.705c-2.141,1.337-4.414,2.008-6.821,2.008-1.604,0-2.978-.703-4.112-2.106-1.139-1.406-1.706-2.909-1.706-4.516,0-11.233.466-26.209,1.404-44.934.802-19.926,1.204-34.836,1.204-44.734v-1.404c-.803-8.426-1.204-14.71-1.204-18.857,0-12.704,2.339-19.058,7.021-19.058,1.336,0,2.508.502,3.51,1.505,1.004,1.003,1.505,2.175,1.505,3.51,0,1.605-.201,4.147-.601,7.623-.402,3.344-.602,5.887-.602,7.623,0,8.961.066,17.051.201,24.272.132,7.09.201,15.115.201,24.073-.671,2.007-1.003,4.814-1.003,8.425v2.408l-.402,15.847c-.269,4.683-.402,10.03-.402,16.049,0,9.227,2.208,13.841,6.62,13.841.267,0,.702-.032,1.304-.1.601-.066,1.435-.1,2.508-.1,1.204-.132,2.739-.201,4.614-.201,7.223,0,10.833,2.008,10.833,6.019,0,1.337-.602,2.473-1.806,3.409s-2.677,1.538-4.413,1.807c-4.816-1.606-10.767-2.41-17.854-2.41Z" style="fill:#fff;"/><path d="M498.463,170.829l.402-31.696c.131-9.359.201-19.86.201-31.495,0-4.278-.402-10.898-1.204-19.86-.671-9.761-1.003-15.713-1.003-17.854,0-1.736.733-3.275,2.206-4.614,1.469-1.335,3.074-2.006,4.814-2.006,4.68,0,9.193,1.037,13.541,3.109,4.344,2.075,8.19,4.985,11.535,8.726,7.087,8.159,11.766,17.121,14.043,26.882,1.204,4.949,1.805,9.829,1.805,14.644,0,1.74-.069,3.345-.201,4.814l-.2,5.417v11.033c0,8.561-.271,15.315-.803,20.261-.802,6.689-2.341,12.638-4.614,17.854-2.677,5.615-6.554,10.63-11.635,15.045-2.407,2.006-5.485,4.014-9.227,6.017h-14.444c-3.478,0-5.216-8.757-5.216-26.278ZM519.928,184.77c2.272-1.403,4.213-3.308,5.818-5.715,1.335-2.138,2.572-4.846,3.711-8.125,1.134-3.275,1.971-6.451,2.508-9.528,1.204-6.019,1.937-12.168,2.206-18.456.131-1.604.201-3.943.201-7.021,0-40.388-7.824-61.451-23.472-63.191-.937,6.018-1.404,12.974-1.404,20.864,0,8.425.534,23.139,1.605,44.132.934,18.591,1.404,33.37,1.404,44.333v4.814c2.674,0,5.147-.7,7.422-2.106Z" style="fill:#fff;"/><path d="M559.246,189.687c0-3.21,2.072-4.814,6.219-4.814h2.206l2.007.201c1.069,0,1.805-.333,2.206-1.004.402-.669.602-1.871.602-3.612,0-2.272-.135-5.816-.402-10.631-.402-3.21-.872-8.959-1.404-17.252-1.204-20.462-1.806-35.909-1.806-46.34,0-3.743.066-7.153.201-10.231l.201-10.231c0-4.414-.201-8.091-.601-11.033-2.141.535-3.681.802-4.615.802-3.209,0-4.814-1.605-4.814-4.814,0-1.605,1.003-3.01,3.01-4.213,2.006-1.204,4.545-2.072,7.623-2.608,5.347-1.069,10.095-1.604,14.242-1.604,1.605,0,2.975.569,4.113,1.704,1.135,1.137,1.706,2.441,1.706,3.912s-.436,2.743-1.304,3.812c-.872,1.073-1.975,1.605-3.311,1.605-.802,0-1.473-.066-2.006-.201h-1.605c-1.338,0-2.307.301-2.908.902s-.904,1.706-.904,3.311c0,12.972.803,32.498,2.407,58.576.267,4.814.803,11.905,1.605,21.264.667,6.153,1.003,12.437,1.003,18.857v7.623c.803-.132,2.138-.201,4.012-.201,5.618,0,8.425,2.341,8.425,7.021v1.202l-5.015,3.414c-.135,0-.571.034-1.304.098-.736.069-2.106.1-4.112.1-4.282.272-7.022.402-8.225.402-11.634,0-17.452-2.006-17.452-6.017Z" style="fill:#fff;"/><path d="M625.045,196.705c-2.141,1.337-4.414,2.008-6.821,2.008-1.604,0-2.978-.703-4.112-2.106-1.139-1.406-1.706-2.909-1.706-4.516,0-11.233.466-26.209,1.404-44.934.802-19.926,1.204-34.836,1.204-44.734v-1.404c-.803-8.426-1.204-14.71-1.204-18.857,0-12.704,2.339-19.058,7.021-19.058,1.336,0,2.508.502,3.51,1.505,1.004,1.003,1.505,2.175,1.505,3.51,0,1.605-.201,4.147-.601,7.623-.402,3.344-.602,5.887-.602,7.623,0,8.961.066,17.051.201,24.272.132,7.09.201,15.115.201,24.073-.671,2.007-1.003,4.814-1.003,8.425v2.408l-.402,15.847c-.269,4.683-.402,10.03-.402,16.049,0,9.227,2.208,13.841,6.62,13.841.267,0,.702-.032,1.304-.1.601-.066,1.435-.1,2.508-.1,1.204-.132,2.739-.201,4.614-.201,7.223,0,10.833,2.008,10.833,6.019,0,1.337-.602,2.473-1.806,3.409s-2.677,1.538-4.413,1.807c-4.816-1.606-10.767-2.41-17.854-2.41Z" style="fill:#fff;"/><path d="M679.607,196.406c-2.943-2.209-5.351-5.182-7.221-8.928-3.88-8.154-6.287-17.051-7.221-26.68-1.204-9.094-1.806-17.854-1.806-26.279,0-1.605.066-2.94.201-4.012v-3.611c0-.667-.069-1.003-.201-1.003v-3.611l.201-14.043c.132-4.278.667-11.099,1.605-20.462.667-6.419,2.206-12.638,4.614-18.656.934-2.674,2.138-4.714,3.611-6.118,1.47-1.404,3.141-2.106,5.015-2.106,5.348,0,10.162.971,14.444,2.908,4.278,1.941,7.889,4.649,10.832,8.125,2.674,3.344,4.947,7.457,6.821,12.337,1.871,4.884,3.209,10.065,4.011,15.547.803,5.616,1.204,11.569,1.204,17.853v1.605c0,4.147.066,7.892.201,11.234l.201,11.435c0,38.516-8.961,57.775-26.88,57.775-3.48,0-6.69-1.104-9.63-3.311ZM695.054,188.382c2.006-1.937,3.542-4.579,4.614-7.924,2.539-6.82,4.078-14.174,4.615-22.066.667-6.821,1.003-12.704,1.003-17.653,0-6.018-.47-13.908-1.404-23.671-.803-10.297-1.204-17.985-1.204-23.07v-3.611c-.269-5.081-1.975-9.494-5.116-13.239-3.144-3.743-6.99-5.618-11.535-5.618s-7.557,2.608-9.027,7.824c-1.338,4.147-2.006,9.498-2.006,16.048,0,2.542.066,4.683.201,6.419v5.417l-.402,9.227c-.269,2.809-.402,5.887-.402,9.228,0,7.221.201,14.378.602,21.465.533,10.03,1.871,19.794,4.012,29.289,2.138,9.898,5.281,14.845,9.428,14.845,2.407,0,4.614-.967,6.62-2.909Z" style="fill:#fff;"/><path d="M755.533,197.41c-3.279-.872-5.786-1.837-7.523-2.909-8.961-5.75-13.44-21.466-13.44-47.143v-16.45c0-5.348.066-10.131.201-14.344.131-4.212.4-8.792.802-13.741.402-5.216,1.003-9.46,1.806-12.739.802-3.275,2.138-6.986,4.012-11.133,1.604-3.876,3.575-6.886,5.917-9.027,2.339-2.137,5.381-3.943,9.128-5.415,3.34-1.47,7.487-2.206,12.437-2.206,2.006,0,3.541.47,4.614,1.403,1.069.938,1.605,2.141,1.605,3.612,0,1.338-.436,2.542-1.304,3.611-.872,1.071-1.906,1.674-3.11,1.805h-9.428c-2.678,0-5.015,1.674-7.022,5.015-2.006,3.345-3.41,7.692-4.212,13.04-1.74,9.898-2.608,17.923-2.608,24.073v1.003l-.402,19.257c-.269,5.752-.402,12.238-.402,19.459,0,5.084.201,9.228.602,12.437.667,4.814,1.805,8.827,3.41,12.037,1.605,3.61,4.344,6.217,8.225,7.821,2.006.803,4.212,1.205,6.619,1.205,1.47,0,2.941-.534,4.414-1.604,1.736,0,3.175.37,4.312,1.104,1.135.735,1.706,1.837,1.706,3.308,0,5.216-3.679,7.824-11.033,7.824-2.943,0-6.053-.436-9.329-1.303Z" style="fill:#fff;"/><path d="M831.46,189.285c-5.216-10.03-10.366-26.546-15.446-49.55-1.474-6.285-2.678-12.102-3.611-17.452-4.816,9.629-7.223,21.264-7.223,34.905v37.113c0,3.076-1.338,4.614-4.012,4.614-2.006,0-3.645-.571-4.915-1.704-1.272-1.139-1.905-2.708-1.905-4.716v-60.783c0-5.883.667-16.715,2.006-32.498,1.336-13.773,2.007-24.605,2.007-32.498,1.069-2.539,3.008-3.812,5.817-3.812,1.736,0,3.21.602,4.414,1.806s1.805,2.677,1.805,4.413v.602c-1.74,2.942-2.608,15.114-2.608,36.51v7.221l7.422-14.645c4.545-9.494,8.827-17.652,12.839-24.473,3.743-6.686,6.486-10.03,8.224-10.03,2.138,0,3.978.47,5.517,1.404,1.535.937,2.307,2.275,2.307,4.012l-4.814,8.023c-10.03,16.184-15.647,25.546-16.85,28.085,0,2.275-.07,4.282-.201,6.018l-.201,6.018c0,5.752,2.307,16.484,6.92,32.198,4.615,15.715,8.457,26.113,11.535,31.194l2.608,3.612c2.539,3.477,3.812,6.553,3.812,9.227,0,1.474-.571,2.708-1.706,3.71-1.137,1.004-2.441,1.506-3.912,1.506-3.077,0-6.353-3.345-9.829-10.03Z" style="fill:#fff;"/><path d="M861.649,196.105c-1.674-1.335-2.642-3.076-2.908-5.216l2.206-3.411c.802,0,2.072.269,3.812.803,2.006.402,3.542.602,4.614.602,2.407,0,4.579-1.068,6.52-3.21,1.937-2.138,3.376-4.947,4.312-8.426,1.737-6.418,2.608-12.167,2.608-17.25,0-8.827-2.808-18.121-8.425-27.884l-2.206-3.812c-2.542-4.414-4.683-8.356-6.419-11.836-1.74-3.476-3.209-7.221-4.414-11.234-1.604-5.216-2.407-10.431-2.407-15.647,0-5.883,1.336-12.037,4.012-18.455,1.336-3.076,3.241-5.583,5.718-7.523,2.472-1.938,5.247-2.909,8.325-2.909,2.407,0,4.645.771,6.721,2.307,2.072,1.539,3.109,3.379,3.109,5.517,0,1.204-.47,2.14-1.404,2.808-.937.671-2.074,1.004-3.41,1.004-1.473,0-2.877-.402-4.213-1.204-2.942.135-5.284,2.743-7.021,7.823-1.473,4.683-2.206,8.561-2.206,11.635,0,3.88.601,7.792,1.805,11.736,1.204,3.946,2.74,7.523,4.615,10.732l4.413,8.025,7.021,13.239c1.872,3.745,3.377,8.093,4.514,13.04,1.135,4.949,1.706,9.964,1.706,15.045,0,8.158-1.875,15.916-5.618,23.27-1.875,3.744-4.513,6.756-7.924,9.029-3.41,2.272-7.19,3.409-11.334,3.409v.602c-2.407-.402-4.447-1.273-6.118-2.608Z" style="fill:#fff;"/><path d="M953.525,194.501c-1.941-1.205-2.909-2.875-2.909-5.015,2.94-2.941,4.414-10.765,4.414-23.472,0-7.623-.602-18.722-1.806-33.301-1.338-13.907-2.006-24.875-2.006-32.898l.4-11.034c.132-3.209.201-6.886.201-11.033,0-3.742-.671-8.491-2.006-14.242-1.605-6.019-2.407-10.231-2.407-12.638,0-4.68,5.146-7.022,15.446-7.022h3.01c7.221,0,13.506,2.208,18.857,6.62,4.278,3.745,7.889,9.162,10.832,16.249,2.007,4.814,3.743,11.503,5.216,20.06.802,7.491,1.204,13.375,1.204,17.653v15.847c-.269.536-.402,1.073-.402,1.605,0,1.073.066,1.875.201,2.407.132.536.201,1.204.201,2.007,0,4.28-.637,9.396-1.905,15.345-1.273,5.953-3.11,12.005-5.517,18.155-6.018,14.714-12.773,25.145-20.261,31.294-4.413,3.48-9.027,5.216-13.842,5.216-2.677,0-4.983-.602-6.92-1.805ZM977.697,171.331c3.743-5.818,6.62-12.268,8.627-19.359,3.611-13.105,5.415-26.345,5.415-39.719,0-7.223-.671-15.111-2.006-23.671-1.473-8.292-4.614-15.779-9.429-22.468-2.275-3.21-5.15-5.718-8.626-7.523-3.478-1.806-7.422-2.708-11.835-2.708v.201c0,12.036.802,30.225,2.407,54.564,1.605,24.207,2.407,42.528,2.407,54.965v19.059c4.947-3.076,9.293-7.523,13.039-13.341Z" style="fill:#fff;"/><path d="M1061.248,194.702c-1.003-.803-1.504-2.14-1.504-4.014v-26.279c-1.74-1.204-5.015-2.272-9.829-3.209-4.816-.934-9.363-1.537-13.642-1.806-1.473,2.809-2.542,6.219-3.209,10.231l-.802,4.012c-.135.935-.536,3.007-1.204,6.22-.671,3.208-1.404,5.985-2.208,8.323-.802,2.341-1.604,4.18-2.407,5.517-5.084,0-8.023-1.337-8.827-4.011,1.47-2.14,3.141-8.426,5.015-18.858l6.62-36.711c2.94-17.383,5.648-32.228,8.125-44.534,2.472-12.303,5.114-22.6,7.923-30.894,3.076-9.227,6.018-13.842,8.827-13.842s4.947.536,6.419,1.605c0,5.351,1.27,18.256,3.812,38.717,2.674,20.06,4.012,33.771,4.012,41.125,0,7.089.733,17.252,2.206,30.491,1.336,13.51,2.006,24.274,2.006,32.298,0,4.547-2.206,6.82-6.619,6.82-2.141,0-3.711-.402-4.715-1.202ZM1059.544,152.173c-.402-5.883-1.073-13.171-2.007-21.866-3.077-30.222-4.614-48.747-4.614-55.567v-1.605c-1.338,1.338-3.179,7.39-5.516,18.154-2.342,10.767-4.514,22.302-6.52,34.605-2.007,12.305-3.078,20.462-3.21,24.473,5.618,1.605,11.567,2.407,17.854,2.407,1.069,0,2.407-.2,4.012-.601Z" style="fill:#fff;"/><path d="M1112.903,197.91c-2.943-2.407-5.485-5.681-7.623-9.829-3.88-7.221-6.754-17.117-8.626-29.689-1.338-8.692-2.341-18.722-3.008-30.091l-.201-10.633v-10.832c-.135-3.476-.201-7.689-.201-12.638,0-8.023.332-15.111,1.003-21.264.533-6.419,1.871-12.769,4.012-19.058,2.138-5.482,5.216-9.359,9.228-11.634,2.407-1.069,4.814-1.605,7.221-1.605,7.087,0,12.704,2.809,16.85,8.425,4.545,6.287,7.555,13.309,9.027,21.063,2.138,9.363,3.341,18.324,3.611,26.882.534,9.498.803,18.455.803,26.88v11.435c0,2.276-.335,6.554-1.004,12.839-.535,4.949-.802,9.162-.802,12.638v.802c-.802,3.747-1.204,8.159-1.204,13.242,0,3.744-.802,7.621-2.407,11.634-1.605,4.011-3.88,7.422-6.821,10.229-2.942,3.213-6.287,4.817-10.03,4.817-3.611,0-6.888-1.205-9.829-3.612ZM1129.955,183.065c1.604-4.413,2.773-9.795,3.51-16.149.733-6.35,1.37-13.541,1.905-21.565.267-3.476.402-7.955.402-13.44l-.201-18.455c-.269-7.221-1.071-16.249-2.407-27.082-1.071-9.227-3.078-17.383-6.018-24.473-1.338-3.341-3.01-5.949-5.015-7.824-2.006-1.871-4.147-2.809-6.419-2.809-3.344,0-5.817,2.608-7.422,7.824-2.006,5.485-3.345,11.503-4.012,18.055-.802,7.089-1.272,13.842-1.404,20.261l-.201,6.619c-.135,1.875-.2,4.414-.2,7.623v.803c0,8.961.933,19.994,2.808,33.099,2.138,17.788,5.282,30.426,9.429,37.915,2.674,4.682,5.482,7.021,8.425,7.021,2.674,0,4.947-2.473,6.821-7.422Z" style="fill:#fff;"/><path d="M181.267,60.339v-14.606l-38.584-28.845s-41.175-4.156-53.036-5.353c-2.273-2.883-6.222-6.777-12.084-8.862l-.467-.169c-2.209-.814-6.804-2.505-12.916-2.505-3.713,0-7.42.631-11.019,1.879-10.177,3.525-18.079,11.029-21.68,20.589-3.121,8.286-2.816,17.326.844,25.983-.127.172-.257.35-.389.532-6.383,8.732-8.361,11.461-8.822,12.163-4.812,7.354-9.21,15.495-12.066,22.337C4.234,99.804,0,119.957,0,136.077c0,26.42,4.19,45.227,14.462,64.913,13.196,25.292,38.734,44.135,66.647,49.177,6.735,1.216,13.733,1.833,20.8,1.833,35.392,0,65.703-14.517,81.081-38.831,6.927-10.953,16.945-38.123,5.284-62.568-1.902-3.986-4.908-8.355-7.913-12.25,7.534-1.771,14.066-6.377,18.201-13.054l.076-.123,20.569-36.363-37.939-28.472Z" style="fill:#0f0c09;"/><g style="clip-path:url(#clippath);"><line x1="78.975" y1="46.662" x2="78.975" y2="46.662" style="fill:none; stroke:url(#linear-gradient); stroke-miterlimit:10; stroke-width:.224px;"/><line x1="63.019" y1="59.554" x2="63.284" y2="59.554" style="fill:none; stroke:url(#linear-gradient-2); stroke-miterlimit:10; stroke-width:.224px;"/><path d="M59.899,59.421c13.576-.663,13.105,1.745,13.105,1.745l-1.164,5.352-14.888,3.12-4.547-.038,5.342-8.582,2.153-1.597Z" style="fill:#0e68b4;"/><polygon points="89.724 26.535 117.997 49.108 94.123 55.417 85.652 58.663 82.772 26.613 89.724 26.535" style="fill:#0e68b4;"/><path d="M84.724,69.03s-5.739,6.324-13.24,13.747c-4.26,4.216-11.517,10.899-11.517,10.899l.13,28.102s5.441-5.925,10.053-14.362c2.045-3.743,3.611-9.825,5.642-16.92,2.548-8.899,8.933-21.467,8.933-21.467Z" style="fill:url(#linear-gradient-3);"/><path d="M99.279,123.368l7.686-7.053s3.707,8.592,8.903,15.823c3.525,4.907,13.043,11.77,13.043,11.77,0,0-10.67,2.31-16.69-1.966-3.271-2.324-10.617-11.561-11.52-13.706-.903-2.146-1.421-4.869-1.421-4.869Z" style="fill:url(#linear-gradient-4);"/><path d="M76.303,50.255l13.479-8.112,1.597,11.491c-1.676,6.716-3.85,7.186-3.85,7.186,0,0-5.536,1.881-7.475,2.482-2.16.669-9.321,2.702-9.321,2.702l1.562-3.349s.925-4.193.971-7.216l3.038-5.184Z" style="fill:url(#linear-gradient-5);"/><path d="M19.501,150.089s11.748-15.365,21.646-28.47c2.569-3.402,4.804-5.979,7.116-9.059,6.593-8.785,11.831-16.222,11.831-16.222v-2.928s-6.378,4.944-20.452,13.402c-14.074,8.458-20.149,13.024-20.149,13.024,0,0-1.362,9.063-1.362,15.281s1.371,14.973,1.371,14.973Z" style="fill:#0a56a2;"/><path d="M25.575,95.899s-3.642,5.488-4.82,11.707,1.09,10.462,1.09,10.462c0,0,25.962-14.271,38.164-24.417,12.202-10.146,21.799-21.38,21.799-21.38l3.299-5.198s-21.916,11.443-29.68,15.541c-15.707,8.291-29.852,13.284-29.852,13.284Z" style="fill:url(#linear-gradient-6);"/><path d="M22.709,104.292s15.97-5.742,25.072-10.592c5.171-2.756,10.657-6.284,10.657-6.284,0,0-6.291,6.677-12.893,13.551l-4.891,6.066-21.153,12.826,3.208-15.567Z" style="fill:url(#linear-gradient-7);"/><polygon points="60.103 96.362 60.076 122.936 48.226 135.777 48.263 112.56 60.103 96.362" style="fill:#042a62;"/><path d="M87.896,135.132s-3.187,3.414-4.602,6.741c-1.571,3.695-1.87,6.797-.548,10.228s4.386,8.405,4.386,8.405c0,0-.474-6.815.967-10.684.674-1.812,2.416-5.63,2.416-5.63l-2.618-9.06Z" style="fill:url(#linear-gradient-8);"/><path d="M128.222,226.964s7.817-1.511,8.728-3.025c.912-1.514.788-5.75.788-5.75,0,0,1.506-9.885-2.645-18.355-4.15-8.471-12.126-18.549-12.126-18.549,0,0,5.744,11.676,3.976,17.855-1.767,6.18-.474,12.673-.474,12.673,0,0,1.951,4.382,1.781,9.226-.17,4.844-.028,5.926-.028,5.926Z" style="fill:url(#linear-gradient-9);"/><path d="M90.451,144.192s-1.142,2.222-2.352,5.63c-1.491,4.198-1.221,10.274-1.221,10.274,1.964,3.168,3.978,6.197,3.978,6.197,0,0,.964-1.539,2.404-5.408.674-1.812,2.269-6.114,2.269-6.114l-2.491-5.402-2.586-5.176Z" style="fill:url(#linear-gradient-10);"/><path d="M110.038,59.133s6.559,4.64,8.051,8.895c1.493,4.255,2.697,4.66,2.684,6.978-.013,2.317.052,2.113,1.074,4.064,1.021,1.951,3.379,5.64,4.217,8.128s.963-.077,1.304,3.681c.34,3.757-.473,6.373,2.224,9.332s7.695,7.097,9.746,10.174c.534.801-.266,2.33-1.627,3.862s-3.81,2.448-3.81,2.448c0,0,.198.393.905,1.794.852,1.688,2.07,2.213,2.332,2.969.15.432-.861.587-.972,1.43s-.419,1.427-.903,1.754-1.265-.289-3.077.825c-1.812,1.114-4.215,2.736-4.215,2.736,0,0,1.243-.144,2.474-.393s2.101-1.023,3.299-1.047c1.087-.022,1.158.662,1.558,1.296.565.896.793,1.471-.075,2.47s-.98,1.012-1.441,1.916-.081.928.099,1.244c.623,1.091,1.558,2.349,1.797,3.6s.907,3.679-.544,4.648c-1.451.968-2.671,2.79-2.671,2.79l-20.967-34.485s1.829-2.809,2.421-3.852c.325-.573.923-1.821,1.317-2.516.173-.305,1.055-.846,1.404-.819,1.023.077,4.328.21,5.091.176.511-.023.615.09.907-.088.354-.215.262-.283.059-.644-.243-.432-1.79-1.158-2.107-2.692-.353-1.71,2.253-7.285,2.253-7.285.363-.583.415-.582,0-.761-.662-.285-1.741-.854-3.16-.995-1.525-.152-2.144-.162-2.809-.117-.349.024-.477.176-.614.497-.327.764-1.023,2.922-2.019,4.915-1.364,2.732-3.473,5.797-5.793,9.099-3.509,4.994-14.008,14.532-14.008,14.532l.504-3.967,9.904-19.743s2.251-5.259,2.802-7.188c.864-3.024,2.036-8.737,2.37-11.704.328-2.913.612-11.709.612-11.709l-.115-3.898-.479-2.352Z" style="fill:url(#linear-gradient-11);"/><path d="M81.876,194.576c-1.44-1.532-2.906-3.142-3.247-3.574-.353-.432-.969-1.165-1.375-1.637-1.257-1.44-.706.424-3.181-3.098l-2.72-2.973.546-18.189-.039-17.138.301.052c.17.026.301.131.314.236,0,.105.039.288.079.393s-.719-4.45-.641-4.057c.681,3.195,3.371,8.689,4.785,12.237,2.579,6.468,5.172,10.284,7.948,14.696l.73.96-.764,14.603c.013,5.643-.013,10.264-.052,10.264s-1.257-1.257-2.684-2.776h0Z" style="fill:url(#linear-gradient-12);"/><path d="M94.612,119.443s1.781-13.629,5.852-29.877c4.072-16.248,5.747-29.733,5.747-29.733,0,0-4.53,13.59-8.104,20.031s-8.431,27.101-8.431,27.101c0,0-1.89,10.234-2.076,12.524-.35,4.319-.345,9.345-.345,9.345l7.356-9.392Z" style="fill:url(#linear-gradient-13);"/><path d="M97.021,82.091s-5.8,16.405-7.594,26.774c-1.794,10.369-1.977,19.167-1.977,19.167l-7.641,11.71s-2.451-14.304-1.248-24.102c.903-7.358.62-6.304.62-6.304l17.84-27.245Z" style="fill:url(#linear-gradient-14);"/><path d="M79.473,111.399s.551-22.353,10.418-39.284c6.541-11.224,11.042-16.475,11.042-16.475l6.244,2.539s-1.479,10.055-8.877,22.296c-4.091,6.771-18.827,30.923-18.827,30.923Z" style="fill:url(#linear-gradient-15);"/><path d="M110.674,108.879l21.226,34.734-3.714.596s-11.067-7.475-15.966-15.654c-3.055-5.1-5.587-9.016-6.51-11.94l4.963-7.737Z" style="fill:url(#linear-gradient-16);"/><path d="M143.741,133.887s.138,8.684-2.232,20.205c-2.37,11.521-5.308,19.856-5.308,19.856l5.287,8.943s9.009-8.657,12.361-19.171c1.719-5.394,1.978-7.524,2.101-9.426.136-2.095.015-3.345-.221-5.45-.278-2.471-.618-4.958-.618-4.958l-4.03-6.87-7.341-3.13Z" style="fill:url(#linear-gradient-17);"/><path d="M155.111,143.887s4.374,13.758,2.074,29.196c-2.299,15.437-9.223,31.672-9.223,31.672,0,0-1.912-3.531-4.373-10.404-2.554-7.135-2.102-11.459-2.102-11.459,0,0,13.196-13.064,13.885-29.185.386-9.039-.262-9.819-.262-9.819Z" style="fill:#042a62;"/><path d="M147.328,214.216s13.707-9.9,14.684-32.364c.977-22.464-6.9-37.966-6.9-37.966,0,0,4.47,15.33,1.65,31.094s-10.457,28.115-10.457,28.115c0,0-.256,3.088-.452,7.539-.196,4.451,1.476,3.581,1.476,3.581Z" style="fill:#0a56a2;"/><path d="M161.422,179.576s4.53,4.766,6.35,9.086,2.605,6.494,2.605,6.494c0,0,.913,2.047-9.557,12.686-9.149,9.296-16.626,18.607-16.626,18.607l.452-10.989s13.123-14.229,14.734-21.365c1.61-7.135,2.042-14.519,2.042-14.519Z" style="fill:url(#linear-gradient-18);"/><path d="M154.525,128.307l-1.168,3.339s8.189,14.713,11.629,31.048c3.789,17.993,3.99,35.69,3.99,35.69,0,0,13.713-17.253,5.263-38.968-8.45-21.715-19.714-31.109-19.714-31.109Z" style="fill:url(#linear-gradient-19);"/><path d="M147.588,134.224s8.505,10.382,11.53,21.642c3.024,11.259,2.244,24.385,2.244,24.385l7.492,14.018s2.71-18.643-1.846-33.293c-5.488-17.647-14.228-33.935-14.228-33.935l-5.19,7.183Z" style="fill:url(#linear-gradient-20);"/><path d="M90.599,129.969s4.275,14.393,13.505,22.772c9.23,8.379,15.606,13.184,15.606,13.184l3.273,15.436s-21.092-15.488-26.604-25.111c-5.512-9.623-5.493-10.314-6.779-14.601-.707-2.357-2.429-7.532-2.429-7.532l3.427-4.148Z" style="fill:url(#linear-gradient-21);"/><path d="M140.995,190.877s-6.117-12.507-11.734-17.43c-5.617-4.923-9.551-7.522-9.551-7.522l3.273,15.436,18.011,9.516Z" style="fill:url(#linear-gradient-22);"/><path d="M136.233,221.871s6.712-8.929,5.82-22.132c-.56-8.286-1.88-9.454-1.88-9.454l-17.447-9.126s11.263,13.904,13.213,22.702c1.951,8.798.294,18.01.294,18.01Z" style="fill:url(#linear-gradient-23);"/><path d="M126.858,210.603s1.22-3.155,1.745-10.812c.367-5.352-5.635-18.506-5.635-18.506-8.704-7.64-21.298-16.289-27.438-26.515l-4.673,11.522s2.712,4.702,9.946,11.514c14.309,13.475,11.349,10.118,18.667,19.165,6.271,7.751,7.389,13.632,7.389,13.632Z" style="fill:url(#linear-gradient-24);"/><path d="M136.054,118.671s4.992,8.092,6.155,8.049c4.698-.172,18.719-3.145,18.719-3.145l-18.248-12.736s-1.824-1.459-4.808,3.223c-2.187,3.431-1.817,4.609-1.817,4.609Z" style="fill:#042a62;"/><path d="M184.778,114.809l-17.665-2.28,11.381,8.302s4.059-2.191,5.499-4.438c.862-1.346.786-1.584.786-1.584Z" style="fill:url(#linear-gradient-25);"/><path d="M156.351,111.306l17.531,12.504-13.269,1.605-18.238-14.868s1.348-1.114,2.845-1.949c1.399-.78,11.132,2.708,11.132,2.708Z" style="fill:#0e68b4;"/><path d="M53.155,69.394l6.664-1.178-.131,12.241s-10.596,5.467-14.048,7.266c-5.173,2.695-19.786,8.11-19.786,8.11,0,0,19.109-14.591,21.988-18.387,2.878-3.797,5.313-8.052,5.313-8.052Z" style="fill:#042a62;"/><path d="M50.071,52.434s1.462,2.356,3.936,4.162,3.739,4.421,3.739,4.421c0,0-5.006,10.858-11.303,19.277-5.778,7.727-21.795,17.334-21.795,17.334,0,0,5.212-17.866,14.176-29.838,3.705-4.949,11.246-15.356,11.246-15.356Z" style="fill:url(#linear-gradient-26);"/><path d="M25.469,97.201l8.711-4.527s8.612-7.24,12.945-13.17c4.017-5.498,6.328-10.185,6.328-10.185l-16.386.659s-.852,3.381-5.34,11.051c-4.785,8.176-6.258,16.173-6.258,16.173Z" style="fill:#79af45;"/><path d="M52.491,47.873s4.914,8.507,10.842,9.018c5.928.511,8.298.229,11.947-2.628.411-.322.918-.803.918-.803l1.917-4.08s-.272-1.568-1.014-1.161c-1.261.692-3.766,3.42-7.786,3.106-4.434-.347-5.081-2.444-5.081-2.444,0,0-3.202,1.411-5.534,1.279-1.635-.093-6.209-2.286-6.209-2.286Z" style="fill:url(#linear-gradient-27);"/><path d="M64.977,77.734l20.391-10.66s2.373-2.961,3.469-4.032c1.221-1.193,6.274-5.682,6.274-5.682l-24.38,8.645-5.755,11.729Z" style="fill:url(#linear-gradient-28);"/><path d="M55.501,26.463s-4.895,6.46-5.053,13.412c-.125,5.471,2.559,8.755,2.559,8.755,0,0,1.931,1.482,6.51,2.02,2.783.327,4.849-1.122,4.849-1.122,0,0-2.839-2.853-3.906-5.387-.718-1.706-.909-3.709-.909-3.709l-4.05-13.968Z" style="fill:url(#linear-gradient-29);"/><path d="M78.114,49.379s-4.345,2.353-4.451,1.204c-.127-1.378,3.928-6.415,3.135-8.1-1.453-3.09-2.544-4.306-4.963-5.869s-5.54-1.2-6.406-.973c-1.056.278-2.994.54-3.884,1.562-.846.971-1.807,3.58-2.221,4.788-1.721-11.312,6.643-14.692,13.003-12.303,4.493,1.688,7.909,6.286,8.393,11.039.161,1.584-.079,3.186-.556,4.698-.239.76-.539,1.5-.885,2.217-.153.318-.306.645-.492.946-.104.168-.658.647-.674.791Z" style="fill:url(#linear-gradient-30);"/><path d="M60.463,45.249s-5.467-5.27-5.887-10.945c-.419-5.675,1.364-7.725,2.247-8.526.838-.759,1.402-1.315,1.402-1.315l13.711,5.887s-5.146-2.731-10.04,2.97c-2.323,2.707-2.551,8.353-2.551,8.353l1.118,3.575Z" style="fill:url(#linear-gradient-31);"/><path d="M78.114,49.379h0l11.667-7.236s-.862-7.304-5.448-13.229c-.605-.782-.805-1.578-1.562-2.3-4.373-4.176-9.714-6.952-17.7-5.413-4.377.843-7.293,3.651-7.293,3.651l14.157,5.499s4.922,1.832,7.004,6.324c.916,1.977,1.199,4.851.511,8.104-.434,2.05-1.337,4.601-1.337,4.601Z" style="fill:url(#linear-gradient-32);"/><path d="M175.863,122.114c.377-.095.563-.092,1.453-.55s1.309-.707,1.309-.707l-11.512-8.328-11.412-.718,15.959,10.867s2.776-.203,4.203-.563Z" style="fill:url(#linear-gradient-33);"/><path d="M96.116,34.934l15.354,14.439,29.536-4.203s-1.582-1.598-4.011-1.97c-2.429-.372-40.879-8.267-40.879-8.267Z" style="fill:url(#linear-gradient-34);"/><polygon points="111.437 49.342 140.289 45.237 160.059 61.131 111.997 50.513 111.437 49.342" style="fill:url(#linear-gradient-35);"/><path d="M111.233,49.503l21.966,19.856,16.592-5.378s-.808-.157,1.836.328c2.645.484,2.84.631,3.573,2.032s.756,7.347.756,7.347l8.698-2.361-3.976-11.411-49.241-10.573-.204.16Z" style="fill:url(#linear-gradient-36);"/><path d="M182.16,95.524c-.969-.655-3.509-2.278-5.63-3.6s-4.805-3.011-5.957-3.744c-1.152-.746-2.92-1.846-3.928-2.461-1.008-.602-2.514-1.545-3.339-2.069-.825-.537-2.055-1.322-2.736-1.754s-1.908-1.678-3.077-2.016c-3.705-1.071-6.208-2.941-7.09-5.327-.316-.855,2.308-1.048,2.961-1.189,1.671-.361,5.216-.804,5.216-.804.22-.027,1.038-.203,2.201-.454.466-.1,1.29-.375,1.758-.784.106-.092.205-.199.255-.33.124-.327.04-.8-.053-1.126-.12-.42-.246-.835-.353-1.258-.354-1.401-.916-3.496-1.257-4.648-.327-1.152-.361-1.251-.552-1.512-.441-.602-.79-.712-2.23-1.838-.576-.445-1.231-.887-1.951-1.464s-1.961-1.478-3.008-2.277c-3.731-2.845-7.498-6.232-11.139-9.188-3.197-2.596-7.462-4.587-11.372-5.289-1.592-.286-3.184-.571-4.776-.857-3.118-.559-6.236-1.119-9.354-1.678-6.178-1.108-12.363-2.183-18.59-2.986l-2.252-2.134c-1.283-1.218-3.077-2.946-4.019-3.862l-3.977-3.466h3.65c1.427,0,4.635.262,7.135.576.799.105,2.055.249,2.815.34.759.079,1.794.209,2.291.275,1.126.157,2.304.301,5.433.642,1.335.144,3.103.353,3.928.458s2.239.288,3.142.393c3.142.393,7.672.969,10.277,1.309,1.44.183,3.299.419,4.124.524,3.051.367,5.734.799,5.931.943.144.118.733.602,3.888,3.168,1.349,1.1,7.724,6.153,9.61,7.62.498.393,2.239,1.767,3.875,3.064,1.637,1.296,3.941,3.116,5.119,4.059,3.784,2.985,5.185,4.124,5.355,4.32.157.183,1.746-.167,2.034,1.22.065.288.578,2.047.88,3.408.301,1.375.374,3.125.44,3.518.589,3.653,1.071,6.767,1.319,7.146s6.635,5.28,18.47,13.633c1.637,1.152,2.321,2.339,3.159,2.954.838.602,2.435,1.702,3.548,2.448,2.501,1.65,2.566,1.702,2.488,1.794-.079.065,4.465,4.913,1.69,5.228-1.165.118-3.703.275-6.047.55-.537.065-2.945-1.081-3.848-.989-.903.079-1.707-.408-1.759-.33s-2.447-.429-2.447.134c0,.72.021,1.075-.096,1.062-.092-.013-1.187-.682-2.155-1.35Z" style="fill:url(#linear-gradient-37);"/><polygon points="154.143 77.705 151.563 73.142 128.477 80.245 148.932 93.953 154.143 77.705" style="fill:url(#linear-gradient-38);"/><polygon points="154.143 77.705 173.484 110.079 148.932 93.953 154.143 77.705" style="fill:url(#linear-gradient-39);"/><path d="M148.932,93.953l23.514,14.388-24.011-2.553s-1.234.056-1.231-.674.315-5.014.766-7.061.962-4.1.962-4.1Z" style="fill:#4d0a24;"/><path d="M161.343,89.891l28.775,18.39-1.705,1.368s-.228,1.635-.67,1.684-14.786-1.989-14.786-1.989l-11.614-19.452Z" style="fill:url(#linear-gradient-40);"/><path d="M190.101,108.566l.497-1.066s.39-1.194-.16-1.652-2.007-1.403-3.992-4.154c-1.558-2.159.366-4.013.309-4.899s-2.23-2.283-2.23-2.283l-30.382-16.807,7.201,12.186,28.757,18.674Z" style="fill:url(#linear-gradient-41);"/><path d="M59.819,68.216s3.01-.62,5.367-1.047c3.599-.652,5.546-1.164,5.546-1.164l-5.055,11.369-5.989,3.083.131-12.241Z" style="fill:#0a56a2;"/><path d="M138.751,110.487s1.288,2.397-.191,3.745-2.826.952-3.396,1.23c-.251.122-1.054.838-1.14,1.324-.09.509,0,0,0,0,0,0-.894,1.156-1.939.111-.838-.838-.841-1.456-.239-2.019s2.716-1.536,3.502-1.955c.485-.259,2.357-.838,2.88-1.401s.524-1.034.524-1.034Z" style="fill:url(#linear-gradient-42);"/><path d="M137.711,109.078c-1.671.481-3.389,1.032-4.966,1.77-.824.386-1.612.921-2.093,1.693-1.171,1.878.097,3.951,1.861,4.674,0,0-1.036-.498-.847-1.45.312-1.574,2.869-2.345,4.205-2.935s2.46-.712,2.997-1.51c.537-.799-1.156-2.242-1.156-2.242Z" style="fill:url(#linear-gradient-43);"/><path d="M127.099,128.522s1.482-.057,1.906-.107c.753-.09,1.695-.427,2.402-.699.725-.279,1.299-.672,2.108-.657.319.006.648.152.926.308.39.22.705.554.971.914.539.727.131,1.439-.304,2.159-.317.525-2.049.592-2.627.599-1.402.017-2.072.147-2.072.147,0,0-3.305-2.657-3.311-2.664Z" style="fill:url(#linear-gradient-44);"/><path d="M133.688,134.319l-3.456-3.286s1.178.074,2.933-.157c1.754-.231,2.66-.869,2.66-.869,0,0,.053.787-1.513,2.615-.562.656-.623,1.697-.623,1.697Z" style="fill:url(#linear-gradient-45);"/><path d="M136.223,121.863c-.178-.909-3.165.753-3.46.95-.995.664-1.99,1.38-2.872,2.205-.926.867-1.583,1.855-2.288,2.896-.1.148-.204.294-.314.435-.035.045-.155.128-.191.172.054.013.109-.032.168-.065.851-.48,2.025-1.136,2.846-1.563,2.291-1.191,3.14-1.517,3.978-1.452s1.39-.565,1.874-.892.527-.803.65-1.375c.13-.606-.391-1.31-.391-1.312Z" style="fill:url(#linear-gradient-46);"/><path d="M59.095,182.697c-.353-.432-.903-1.1-1.218-1.466-2.095-2.514-5.617-8.746-7.175-12.66-1.427-3.613-2.887-5.805-3.031-7.939-.131-1.964-.21-24.014-.092-24.616.027-.145-.018-.414.648-1.446.158-.245,3.188-2.99,6.35-6.398,4.885-5.266,5.523-7.118,5.523-7.118,0,0,.052.714.059,1.246.011.902.01,1.805.011,2.708.004,3.667.001,7.334.008,11.001,0,.415.002.83.003,1.245.013,8.837-.537,16.864-.498,17.623.052,1.244.158,9.19.145,16.09-.013,6.887-.039,12.529-.052,12.529s-.314-.353-.681-.799Z" style="fill:#0a56a2;"/><path d="M40.507,139.3l-.919,62.633s-7.216-7.448-9.665-11.939c-2.448-4.491-4.756-10.701-4.756-10.701,0,0,3.479-11.591,6.765-18.792,3.286-7.201,8.574-21.202,8.574-21.202Z" style="fill:#0a56a2;"/><path d="M59.56,154.105l.423,43.159s4.102,4.955,5.577,6.677c2.339,2.731,6.396,6.061,6.396,6.061l-.154-27.421c-2.701-7.028-12.241-28.476-12.241-28.476Z" style="fill:#1d4f40;"/><path d="M73.241,96.243s-1.135,27.827-.912,36.73c.223,8.903.325,14.96.325,14.96l-.855,34.374s-4.865-5.503-7.854-13.993c-2.989-8.49-4.388-14.482-4.388-14.482l.543-32.777s4.623-5.834,7.006-10.471c2.383-4.637,6.135-14.34,6.135-14.34Z" style="fill:#79af45;"/><path d="M59.983,197.264l.021,16.313s3.963,5.712,6.747,8.085,5.255,2.303,5.255,2.303l-.05-13.964s-3.439-2.842-6.396-6.061-5.577-6.677-5.577-6.677Z" style="fill:#1d4f40;"/><path d="M60.406,218.164s-8.43-3.728-10.844-12.739c-2.414-9.011-.891-37.675-.891-37.675l-.102-8.869s3.302,11.252,5.994,15.969c2.792,4.893,5.396,8.27,5.396,8.27l.448,35.045Z" style="fill:#042a62;"/><path d="M84.56,197.351c.171.453.259.944.298,1.452.087,1.136-.069,2.357-.078,3.421-.073,8.714-.146,17.69-.219,26.404-4.114-.92-8.104-2.653-11.83-4.625-.171-.091-.349-.188-.46-.347-.145-.207-.151-.477-.152-.729-.056-13.292-.261-27.054-.316-40.346l12.758,14.77Z" style="fill:url(#linear-gradient-47);"/><path d="M84.711,198.389l18.555,16.288-.284,16.213-3.131.028s-4.375-6.372-8.892-15.762c-1.939-4.031-6.248-16.766-6.248-16.766Z" style="fill:#4d0a24;"/><path d="M103.266,214.677s6.69,5.524,8.772,7.528c1.784,1.717,6.729,7.266,6.729,7.266,0,0-4.239.974-8.869,1.447-4.63.472-6.917-.028-6.917-.028l.284-16.213Z" style="fill:#1f131b;"/><path d="M84.482,175.335s8.706,10.984,10.382,14.192,4.096,6.328,6.191,13.738,2.194,12.35,2.194,12.35c0,0-16.144-12.247-18.69-18.264l-.078-22.016Z" style="fill:url(#linear-gradient-48);"/><path d="M92.692,187.032s18.294,17.033,21.806,24.103c3.512,7.07,5.483,10.431,5.84,12.603.357,2.172-1.201,5.807-1.201,5.807l-15.883-14.881s-2.108-11.096-3.668-15.128c-1.56-4.032-6.893-12.504-6.893-12.504Z" style="fill:url(#linear-gradient-49);"/><path d="M91.682,214.17c2.81,5.977,9.699,16.524,9.699,16.524,0,0-7.414.062-11.322-.722s-5.498-1.344-5.498-1.344v-31.277s4.987,12.279,7.121,16.819Z" style="fill:url(#linear-gradient-50);"/><path d="M111.13,60.722s.723,4.357.326,10.13c-.397,5.773-1.214,14.398-6.775,27.824-5.561,13.426-9.892,19.518-9.892,19.518,0,0,.9-9.828,2.876-19.139,1.104-5.206,2.967-11.626,4.264-17.452,3.615-16.247,4.383-23.9,4.383-23.9l2.291,1.258c1.63.895,2.529,1.761,2.529,1.761Z" style="fill:url(#linear-gradient-51);"/><path d="M72.294,62.656s1.081-2.698,1.977-4.806c1.756-4.132,1.931-4.456,1.931-4.456h0c-1.325,1.293-2.107,1.579-3.685,2.546h0s-.223,6.716-.223,6.716Z" style="fill:#0e68b4;"/></g></svg>