<?xml version="1.0" encoding="UTF-8"?><svg id="Layer_1" xmlns="http://www.w3.org/2000/svg" width="1080" height="1080" viewBox="0 0 1080 1080"><circle cx="540" cy="540" r="540" style="fill:#fcf3cc;"/><path d="M601.415,919.141h-119c-24.393-5.618-37.08-18.33-49.801-38.699-15.128-24.224-27.745-50.186-42.891-74.409l-109.792.092c-22.708-2.314-40.519-14.425-52.932-33.068-19.296-28.982-35.98-63.634-52.868-94.132l-3.716-15.784v-13c1.955-8.523,3.494-17.153,7.455-25.045l46.363-80.63c-12.982-25.604-30.243-49.903-43.34-75.304-2.509-4.866-5.618-10.61-7.195-15.805-1.527-5.027-1.883-10.199-3.283-15.217.267-3.895-.372-8.173,0-12,.898-9.234,4.675-19.405,8.828-27.672,12.504-24.892,32.9-60.586,48.363-83.637,11.555-17.224,28.745-28.471,49.431-31.569l108.385-.615c17.38-26.601,31.297-56.01,48.192-82.808,37.984-60.248,100.349-30.78,160.34-37.738,21.678,1.868,39.94,13.117,52.275,30.725l52.18,89.82,102.545.455c29.695,2.806,44.287,19.73,58.633,43.367,13.45,22.159,29.843,48.765,41.348,71.652,9.821,19.537,11.892,40.04,3.66,60.701l-48.19,84.877c-.214,1.746.834,3.03,1.472,4.491,19.674,45.038,69.869,86.004,44.724,139.639-14.73,31.418-38.588,63.839-55.674,94.326-12.131,13.846-28.667,21.985-47.028,23.972l-105.491.509c-16.062,24.424-28.624,51.115-44.192,75.808-10.758,17.063-27.574,33.993-48.801,36.699ZM589.168,390.888l45.214-79.239-45.08-78.895-3.33-1.67-89.541.573c-1.916.862-4.873,6.681-6.188,8.812-14.293,23.153-26.784,47.645-40.456,71.173l43.797,76.831,2.847,3.153,2.434.566c27.519-1.877,57.93,2.323,85.093-.01,1.606-.138,4.023-.145,5.21-1.294ZM379.212,352.353l-92.803.283-1.465,1.535-44.464,78.476,42.928,74.001,94.549.534,5.515-1.745c12.902-24.656,28.46-48.089,41.021-72.774l-1.537-4.57-43.745-75.74ZM702.08,352.306l-46.622,80.35,42.951,73.99,99.021.01,42.611-74.017-44.727-78.897-3.341-1.659-89.892.223ZM493.697,619.849c1.499,1.245,3.362,1.178,5.176,1.333,27.495,2.347,58.239-1.873,86.089.006,2.419.044,4.978-.495,6.305-2.695l42.922-75.689-45.768-79.167-93.518.493-45.29,78.668,44.084,77.052ZM282.573,582.304l-42.079,74.337,45.03,78.891,3.329,1.671,89.568-.555,45.215-76.784.838-3.223-.838-3.223-40.709-70.29-100.354-.825ZM700.664,735.885c1.194,1.156,3.596,1.157,5.208,1.296,27.148,2.348,57.585-1.877,85.092.009l3.019-.981,46.056-79.571-42.632-73.992-99-.013-42.935,74.007,45.19,79.244ZM493.664,693.397l-44.064,77.067,46.423,79.569,3.874,1.126,87.503-.534,2.847-3.153,43.942-76.993-42.909-75.702-2.1-1.9-4.218-.782c-27.828,1.9-58.625-2.37-86.089.005-1.613.139-4.014.14-5.208,1.297Z" style="fill:#d47804;"/></svg>