<?xml version="1.0" encoding="UTF-8"?><svg id="Layer_1" xmlns="http://www.w3.org/2000/svg" width="1080" height="1080" viewBox="0 0 1080 1080"><circle cx="540" cy="540" r="540" style="fill:#392e22;"/><path d="M739.768,360.634l104.049,77.791c-36.919,43.09-46.591,121.52-109.406,134.085,103.913,152.52-20.816,304.47-186.571,316.46-300.408,21.732-383.238-305.332-250.238-527.039,5.503-9.174,26.136-32.155,27.118-38.455,1.08-6.927-6.488-17.205-7.37-25.998-7.587-75.665,64.986-128.471,134.52-99.345,18.951,7.938,22.538,20.952,45.023,25.276,36.659,7.051,106.832,3.788,137.434,16.345,7.773,3.19,97.197,69.987,100.317,75.431,8.477,14.791,1.534,29.606,5.125,45.448ZM782.702,440.728c-18.533-13.051-58.456-33.123-72.569-48.311-13.101-14.099-7.436-33.503-19.642-50.657-23.457-32.965-77.886-61.079-117.086-67.448-49.744-8.083-74.005-2.542-121.323-23.63-83.856-37.372-114.044,104.868-16.42,97.712,7.676,21.708-26.029,12.373-39.579,6.58-10.271-4.391-14.097-12.818-24.034-15.396-63.545,68.931-88.561,162.292-85.781,254.825,4.274,5.084,25.15-18.199,28.599-21.883,17.781-18.998,30.71-44.053,50.42-61.573l4.509,191.052c7.821,80.827,58.458,129.665,140.505,129.66,3.093-2.754-26.439-55.983-29.997-64.421-1.695-4.02-9.553-11.182-2.964-14.612l90.075,74.641c-3.747-57.16-59.5-92.616-89.746-136.483-45.227-65.596-50.164-142.138-40.813-220.351,3.066-25.64,31.844-104.503,47.592-123.762,8.435-10.315,45.616-18.26,58.644-15.871,19.638,3.602,46.755,44.606,58.275,47.688,22.259,5.955,66.764-34.66,71.529,9.383-20.679,7.955-46.083,11.341-65.939,19.985-5.428,2.363-10.687-.111-8.74,8.577,51.499,27.426,105.68,90.768,166.91,76.872,2.261-16.646-18.141-21.081-13.175-39.462,2.38-2.366,33.766,6.595,30.747-13.117ZM453.205,491.174c-2.358,24.507,1.719,52.014,0,76.889,15.116-2.717,22.847-24.09,32.901-35.2,15.35-16.963,36.765-33.102,50.473-50.581,8.009-10.211,20.292-40.191,22.247-41.504,3.956-2.656,17.044,1.895,17.282,6.406.313,5.922-14.891,16.698.12,28.568-6.376.812-15.77-2.132-21.117.949-2.824,1.627-35.69,51.026-36.15,54.253-5.479,38.461,52.522,72.293,87.368,58.471,3.469-2.171,4.558-35.682,3.766-40.517-.804-4.91-8.93-8.976-7.347-11.425.709-1.097,10.018,2.525,8.794-6.777-1.013-7.698-10.57-11.066-8.965-19.717,43.346-7.767-3.527-25.302-9.854-40.705-4.184-10.187-1.94-20.833-5.41-29.74-7.572-19.434-27.976-70.339-42.117-80.908-12.451-9.306-26.361-16.632-39.412-4.781-22.887,20.784-49.596,105.301-52.58,136.318ZM743.166,506.574l-102.626-8.415c-9.377,3.209-9.313,29.308-11.57,39.124,34.198-3.605,101.389,9.778,114.196-30.709ZM664.019,550.521c-2.488-2.075-6.103-.584-9.072,2.712-11.22,12.456-33.78,100.9-33.47,119.039.206,12.055,21.707,35.219,24.667,56.543,3.158,22.747-1.431,45.351-3.987,67.698,26.949-10.919,60.293-50.06,70.45-76.692,27.259-71.475-14.8-112.641-48.588-169.3ZM488.301,554.893c-47.14,40.299-18.316,78.521,13.351,116.305,28.64,34.172,71.428,58.99,84.575,104.343l9.744,47.248c30.023-15.139,36.322-54.679,32.977-85.596-8.977-82.963-122.281-102.672-140.647-182.299ZM343.364,603.212c-10.098-1.78-7.012.542-9.812,5.625-25.668,46.597-39.654,99.668,9.812,134.973v-140.597Z" style="fill:#e7b941;"/><path d="M448.243,325.843c-8.166,12.876-61.802,2.179-45.604-30.207,13.392-26.775,60.261,7.096,45.604,30.207Z" style="fill:#e7b941;"/></svg>