<?xml version="1.0" encoding="UTF-8"?><svg id="Layer_1" xmlns="http://www.w3.org/2000/svg" width="1080" height="267.02" viewBox="0 0 1080 267.02"><path d="M32.508,261.05c-4.867-3.981-9.07-9.397-12.606-16.253-6.415-11.942-11.169-28.303-14.263-49.093-2.214-14.371-3.873-30.956-4.976-49.755l-.332-17.58v-17.912c-.224-5.748-.332-12.714-.332-20.898,0-13.268.549-24.986,1.659-35.159.881-10.615,3.095-21.115,6.634-31.512,3.536-9.065,8.625-15.477,15.259-19.24,3.981-1.767,7.961-2.653,11.942-2.653,11.718,0,21.005,4.643,27.863,13.93,7.515,10.398,12.491,22.008,14.927,34.829,3.534,15.482,5.525,30.3,5.97,44.449.881,15.704,1.328,30.516,1.328,44.448v18.906c0,3.764-.556,10.839-1.659,21.23-.888,8.182-1.328,15.148-1.328,20.897v1.326c-1.326,6.193-1.989,13.492-1.989,21.893,0,6.193-1.328,12.604-3.981,19.238s-6.417,12.274-11.278,16.917c-4.867,5.308-10.396,7.961-16.585,7.961-5.972,0-11.393-1.989-16.253-5.97ZM60.702,236.504c2.653-7.298,4.587-16.196,5.805-26.703,1.211-10.5,2.264-22.39,3.15-35.658.441-5.746.664-13.153.664-22.223l-.332-30.517c-.445-11.942-1.772-26.868-3.981-44.78-1.772-15.259-5.089-28.744-9.951-40.467-2.212-5.526-4.976-9.838-8.293-12.938-3.317-3.094-6.856-4.643-10.613-4.643-5.531,0-9.619,4.313-12.274,12.936-3.317,9.07-5.529,19.021-6.634,29.853-1.326,11.725-2.104,22.889-2.321,33.502l-.332,10.947c-.224,3.098-.332,7.296-.332,12.604v1.326c0,14.818,1.545,33.062,4.643,54.731,3.536,29.413,8.733,50.311,15.591,62.691,4.42,7.743,9.065,11.61,13.93,11.61,4.422,0,8.179-4.088,11.279-12.272Z" style="fill:#fff;"/><path d="M150.26,261.05c-4.867-3.981-9.07-9.397-12.606-16.253-6.415-11.942-11.169-28.303-14.263-49.093-2.214-14.371-3.873-30.956-4.976-49.755l-.332-17.58v-17.912c-.224-5.748-.332-12.714-.332-20.898,0-13.268.549-24.986,1.659-35.159.881-10.615,3.095-21.115,6.634-31.512,3.536-9.065,8.625-15.477,15.259-19.24,3.981-1.767,7.961-2.653,11.942-2.653,11.718,0,21.005,4.643,27.863,13.93,7.515,10.398,12.491,22.008,14.927,34.829,3.534,15.482,5.525,30.3,5.97,44.449.881,15.704,1.328,30.516,1.328,44.448v18.906c0,3.764-.556,10.839-1.659,21.23-.888,8.182-1.328,15.148-1.328,20.897v1.326c-1.326,6.193-1.989,13.492-1.989,21.893,0,6.193-1.328,12.604-3.981,19.238s-6.417,12.274-11.278,16.917c-4.867,5.308-10.396,7.961-16.585,7.961-5.972,0-11.393-1.989-16.253-5.97ZM178.455,236.504c2.653-7.298,4.587-16.196,5.805-26.703,1.211-10.5,2.264-22.39,3.15-35.658.441-5.746.664-13.153.664-22.223l-.332-30.517c-.445-11.942-1.772-26.868-3.981-44.78-1.772-15.259-5.089-28.744-9.951-40.467-2.212-5.526-4.976-9.838-8.293-12.938-3.317-3.094-6.856-4.643-10.613-4.643-5.531,0-9.619,4.313-12.274,12.936-3.317,9.07-5.529,19.021-6.634,29.853-1.326,11.725-2.104,22.889-2.321,33.502l-.332,10.947c-.224,3.098-.332,7.296-.332,12.604v1.326c0,14.818,1.545,33.062,4.643,54.731,3.536,29.413,8.733,50.311,15.591,62.691,4.42,7.743,9.065,11.61,13.93,11.61,4.422,0,8.179-4.088,11.279-12.272Z" style="fill:#fff;"/><path d="M263.7,255.41c-6.415-5.306-12.272-14.371-17.58-27.199-3.317-8.401-5.972-20.234-7.961-35.493-1.55-12.382-2.323-24.1-2.323-35.161-.224-2.87-.332-7.846-.332-14.927v-24.546c0-9.506.332-20.897.996-34.165.881-11.278,2.653-22.774,5.306-34.497,2.872-11.496,7.075-21.23,12.606-29.191,5.525-8.401,12.936-14.371,22.223-17.912,5.526-1.545,10.724-2.323,15.591-2.323,9.287,0,13.932,3.1,13.932,9.289,0,2.436-.829,4.368-2.488,5.805-1.659,1.44-3.816,2.156-6.469,2.156-.886,0-2.436-.332-4.643-.994l-4.643-.664c-4.205,0-7.962,1.275-11.279,3.814-3.317,2.544-6.083,6.25-8.293,11.112-5.089,10.615-8.514,22.225-10.281,34.829-2.436,15.48-3.764,28.972-3.981,40.468-.445,9.951-.664,20.456-.664,31.512v8.955c-.222,3.1-.33,6.966-.33,11.61,0,11.278.549,22.338,1.659,33.17.881,12.828,3.317,23.883,7.296,33.17,3.536,10.396,9.289,17.695,17.249,21.893,3.758,2.212,8.401,3.317,13.93,3.317,9.729,0,17.913-4.643,24.547-13.932-.224-7.737-.777-15.309-1.659-22.72-.888-7.407-2.214-12.439-3.981-15.093-.224,0-.721.057-1.493.167-.777.113-1.937.279-3.482.497l-7.961.662c-7.52,0-11.278-3.202-11.278-9.619,0-1.991,1.103-3.758,3.317-5.308,2.208-1.544,5.193-2.653,8.955-3.317,6.189-1.544,11.718-2.321,16.585-2.321,4.422,0,7.847,1.659,10.283,4.976,2.431,3.317,3.649,7.52,3.649,12.604,0,7.298,1.103,17.249,3.317,29.853,2.208,12.387,3.317,22.225,3.317,29.521,0,2.431-.777,4.53-2.323,6.304-1.55,1.767-3.43,2.653-5.638,2.653-5.531,0-9.289-2.323-11.279-6.966v-.332l-7.296,3.649c-6.634,3.758-12.274,5.64-16.917,5.64-12.163,0-22.225-3.649-30.185-10.947Z" style="fill:#fff;"/><path d="M421.752,255.742c-1.659-1.326-2.488-3.534-2.488-6.634v-43.453c-2.876-1.989-8.293-3.758-16.255-5.306-7.961-1.545-15.48-2.54-22.555-2.987-2.436,4.645-4.203,10.283-5.308,16.917l-1.326,6.634c-.224,1.55-.886,4.976-1.991,10.283-1.109,5.308-2.321,9.899-3.649,13.765-1.326,3.873-2.653,6.914-3.979,9.122-8.408,0-13.268-2.208-14.595-6.634,2.429-3.534,5.193-13.93,8.293-31.18l10.946-60.701c4.862-28.745,9.339-53.291,13.433-73.638,4.09-20.343,8.459-37.368,13.103-51.082,5.084-15.259,9.951-22.887,14.595-22.887s8.179.886,10.615,2.653c0,8.846,2.099,30.185,6.302,64.018,4.422,33.17,6.634,55.84,6.634,67.999,0,11.725,1.213,28.527,3.649,50.419,2.208,22.338,3.317,40.136,3.317,53.404,0,7.52-3.649,11.278-10.947,11.278-3.539,0-6.135-.664-7.794-1.991ZM418.932,185.423c-.664-9.729-1.774-21.779-3.317-36.157-5.091-49.972-7.63-80.603-7.63-91.88v-2.655c-2.212,2.214-5.254,12.222-9.122,30.02-3.871,17.803-7.463,36.876-10.78,57.219-3.317,20.348-5.089,33.833-5.306,40.467,9.287,2.655,19.125,3.981,29.521,3.981,1.767,0,3.979-.332,6.634-.994Z" style="fill:#fff;"/><path d="M540.994,252.093l.662-40.799.664-40.799c0-14.813-.332-37.26-.994-67.336-.664-29.853-.996-52.295-.996-67.335v-1.991c0-5.748.549-11.056,1.659-15.921,1.326-5.972,4.862-8.957,10.615-8.957,15.476,0,27.749,4.976,36.819,14.927,9.063,9.951,13.598,23.111,13.598,39.472,0,9.951-2.653,20.348-7.961,31.18-5.308,10.839-11.61,18.908-18.906,24.215,12.821,8.625,22.275,19.735,28.36,33.335,6.08,13.6,9.122,28.583,9.122,44.947,0,7.742-2.653,17.363-7.961,28.857-6.417,13.713-15.15,23.551-26.204,29.521-6.634,3.317-13.932,4.976-21.893,4.976h-1.326c-10.175,0-15.259-2.761-15.259-8.293ZM574.165,99.511c3.317-6.187,6.411-13.709,9.287-22.555.664-2.431,1.767-5.525,3.317-9.287v-11.61c0-6.634-2.436-13.046-7.296-19.24-4.867-6.189-10.398-9.287-16.585-9.287-3.1,0-4.645,3.43-4.645,10.283,0,14.595.219,27.644.664,39.14l.664,36.819c5.746-1.326,10.613-6.08,14.595-14.264ZM586.769,228.212c6.412-8.401,9.619-18.462,9.619-30.185,0-10.168-.829-19.513-2.488-28.029-1.659-8.51-3.814-14.978-6.467-19.403-2.436-4.198-4.867-7.739-7.298-10.615-2.436-2.872-4.535-4.752-6.302-5.64l-2.653-.994h-11.942c1.103,25.432,1.659,62.029,1.659,109.794,10.832-1.545,19.457-6.521,25.872-14.927Z" style="fill:#fff;"/><path d="M672.015,261.05c-4.867-3.981-9.07-9.397-12.606-16.253-6.415-11.942-11.169-28.303-14.263-49.093-2.214-14.371-3.873-30.956-4.976-49.755l-.332-17.58v-17.912c-.224-5.748-.332-12.714-.332-20.898,0-13.268.549-24.986,1.659-35.159.881-10.615,3.095-21.115,6.634-31.512,3.536-9.065,8.625-15.477,15.259-19.24,3.981-1.767,7.961-2.653,11.942-2.653,11.718,0,21.005,4.643,27.863,13.93,7.515,10.398,12.491,22.008,14.927,34.829,3.534,15.482,5.525,30.3,5.97,44.449.881,15.704,1.328,30.516,1.328,44.448v18.906c0,3.764-.556,10.839-1.659,21.23-.888,8.182-1.328,15.148-1.328,20.897v1.326c-1.326,6.193-1.989,13.492-1.989,21.893,0,6.193-1.328,12.604-3.981,19.238-2.653,6.634-6.417,12.274-11.278,16.917-4.867,5.308-10.396,7.961-16.585,7.961-5.972,0-11.393-1.989-16.253-5.97ZM700.21,236.504c2.653-7.298,4.587-16.196,5.805-26.703,1.211-10.5,2.264-22.39,3.15-35.658.441-5.746.664-13.153.664-22.223l-.332-30.517c-.445-11.942-1.772-26.868-3.981-44.78-1.772-15.259-5.089-28.744-9.951-40.467-2.212-5.526-4.976-9.838-8.293-12.938-3.317-3.094-6.856-4.643-10.613-4.643-5.531,0-9.619,4.313-12.274,12.936-3.317,9.07-5.529,19.021-6.634,29.853-1.326,11.725-2.104,22.889-2.321,33.502l-.332,10.947c-.224,3.098-.332,7.296-.332,12.604v1.326c0,14.818,1.545,33.062,4.643,54.731,3.536,29.413,8.733,50.311,15.591,62.691,4.42,7.743,9.065,11.61,13.93,11.61,4.422,0,8.179-4.088,11.279-12.272Z" style="fill:#fff;"/><path d="M789.767,261.05c-4.867-3.981-9.07-9.397-12.606-16.253-6.415-11.942-11.169-28.303-14.263-49.093-2.214-14.371-3.873-30.956-4.976-49.755l-.332-17.58v-17.912c-.224-5.748-.332-12.714-.332-20.898,0-13.268.549-24.986,1.659-35.159.881-10.615,3.095-21.115,6.634-31.512,3.536-9.065,8.625-15.477,15.259-19.24,3.981-1.767,7.961-2.653,11.942-2.653,11.718,0,21.005,4.643,27.863,13.93,7.515,10.398,12.491,22.008,14.927,34.829,3.534,15.482,5.525,30.3,5.97,44.449.881,15.704,1.328,30.516,1.328,44.448v18.906c0,3.764-.556,10.839-1.659,21.23-.888,8.182-1.328,15.148-1.328,20.897v1.326c-1.326,6.193-1.989,13.492-1.989,21.893,0,6.193-1.328,12.604-3.981,19.238s-6.417,12.274-11.278,16.917c-4.867,5.308-10.396,7.961-16.585,7.961-5.972,0-11.393-1.989-16.253-5.97ZM817.962,236.504c2.653-7.298,4.587-16.196,5.805-26.703,1.211-10.5,2.264-22.39,3.15-35.658.441-5.746.664-13.153.664-22.223l-.332-30.517c-.445-11.942-1.772-26.868-3.981-44.78-1.772-15.259-5.089-28.744-9.951-40.467-2.212-5.526-4.976-9.838-8.293-12.938-3.317-3.094-6.856-4.643-10.613-4.643-5.531,0-9.619,4.313-12.274,12.936-3.317,9.07-5.529,19.021-6.634,29.853-1.326,11.725-2.104,22.889-2.321,33.502l-.332,10.947c-.224,3.098-.332,7.296-.332,12.604v1.326c0,14.818,1.545,33.062,4.643,54.731,3.536,29.413,8.733,50.311,15.591,62.691,4.42,7.743,9.065,11.61,13.93,11.61,4.422,0,8.179-4.088,11.279-12.272Z" style="fill:#fff;"/><path d="M903.207,255.41c-6.415-5.306-12.272-14.371-17.58-27.199-3.317-8.401-5.972-20.234-7.961-35.493-1.55-12.382-2.323-24.1-2.323-35.161-.224-2.87-.332-7.846-.332-14.927v-24.546c0-9.506.332-20.897.996-34.165.881-11.278,2.653-22.774,5.306-34.497,2.872-11.496,7.075-21.23,12.606-29.191,5.525-8.401,12.936-14.371,22.223-17.912,5.526-1.545,10.724-2.323,15.591-2.323,9.287,0,13.932,3.1,13.932,9.289,0,2.436-.829,4.368-2.488,5.805-1.659,1.44-3.816,2.156-6.469,2.156-.886,0-2.436-.332-4.643-.994l-4.643-.664c-4.205,0-7.962,1.275-11.279,3.814-3.317,2.544-6.083,6.25-8.293,11.112-5.089,10.615-8.514,22.225-10.281,34.829-2.436,15.48-3.764,28.972-3.981,40.468-.445,9.951-.664,20.456-.664,31.512v8.955c-.222,3.1-.33,6.966-.33,11.61,0,11.278.549,22.338,1.659,33.17.881,12.828,3.317,23.883,7.296,33.17,3.536,10.396,9.289,17.695,17.249,21.893,3.758,2.212,8.401,3.317,13.93,3.317,9.729,0,17.913-4.643,24.547-13.932-.224-7.737-.777-15.309-1.659-22.72-.888-7.407-2.214-12.439-3.981-15.093-.224,0-.721.057-1.493.167-.777.113-1.937.279-3.482.497l-7.961.662c-7.52,0-11.278-3.202-11.278-9.619,0-1.991,1.103-3.758,3.317-5.308,2.208-1.544,5.193-2.653,8.955-3.317,6.189-1.544,11.718-2.321,16.585-2.321,4.422,0,7.847,1.659,10.283,4.976,2.431,3.317,3.649,7.52,3.649,12.604,0,7.298,1.103,17.249,3.317,29.853,2.208,12.387,3.317,22.225,3.317,29.521,0,2.431-.777,4.53-2.323,6.304-1.55,1.767-3.43,2.653-5.638,2.653-5.531,0-9.289-2.323-11.279-6.966v-.332l-7.296,3.649c-6.634,3.758-12.274,5.64-16.917,5.64-12.163,0-22.225-3.649-30.185-10.947Z" style="fill:#fff;"/><path d="M1061.259,255.742c-1.659-1.326-2.488-3.534-2.488-6.634v-43.453c-2.876-1.989-8.293-3.758-16.255-5.306-7.961-1.545-15.48-2.54-22.555-2.987-2.436,4.645-4.203,10.283-5.308,16.917l-1.326,6.634c-.224,1.55-.886,4.976-1.991,10.283-1.109,5.308-2.321,9.899-3.649,13.765-1.326,3.873-2.653,6.914-3.979,9.122-8.408,0-13.268-2.208-14.595-6.634,2.429-3.534,5.193-13.93,8.293-31.18l10.946-60.701c4.862-28.745,9.339-53.291,13.433-73.638,4.09-20.343,8.459-37.368,13.103-51.082,5.084-15.259,9.951-22.887,14.595-22.887s8.179.886,10.615,2.653c0,8.846,2.099,30.185,6.302,64.018,4.422,33.17,6.634,55.84,6.634,67.999,0,11.725,1.213,28.527,3.649,50.419,2.208,22.338,3.317,40.136,3.317,53.404,0,7.52-3.649,11.278-10.947,11.278-3.539,0-6.135-.664-7.794-1.991ZM1058.439,185.423c-.664-9.729-1.774-21.779-3.317-36.157-5.091-49.972-7.63-80.603-7.63-91.88v-2.655c-2.212,2.214-5.254,12.222-9.122,30.02-3.871,17.803-7.463,36.876-10.78,57.219-3.317,20.348-5.089,33.833-5.306,40.467,9.287,2.655,19.125,3.981,29.521,3.981,1.767,0,3.979-.332,6.634-.994Z" style="fill:#fff;"/></svg>