<?xml version="1.0" encoding="UTF-8"?><svg id="Layer_1" xmlns="http://www.w3.org/2000/svg" width="1051.69" height="1080" viewBox="0 0 1051.69 1080"><path d="M1048.231,68.962c10.182,10.065-4.297,56.999-15.224,74.615-35.217,56.774-247.272,181.933-312.869,244.017-30.893,29.239-99.051,88.839-97.887,131.48,1.598,58.556,338.615,350.791,393.056,424.926,14.07,19.159,42.238,47.728,26.078,73.812-62.425,39.194-199.386,68.512-268.009,36.662-41.014-19.036-50.778-73.13-79.152-100.886-87.497-85.591-193.785-157.062-260.831-262.914L56.721,1067.06c-53.445,38.621-67.283-16.938-49.191-65.321,38.345-102.548,359.378-325.821,367.269-370.84C294.229,498.762-7.387,211.814.138,59.649,3.482-7.959,106.3-2.62,155.049,3.162c167.441,19.861,229.756,376.975,393.132,457.949,43.074-59.538,92.376-114.762,148.056-162.774,39.398-33.973,256.975-206.99,287.192-220.564,15.525-6.974,57.77-15.761,64.801-8.811ZM917.046,984.69c29.864-26.026-125.173-130.883-139.963-146.454-117.753-123.972-298.543-307.287-400.741-434.43C284.975,290.137,245.836,96.806,97.319,68.943c-7.179,69.949,46.414,130.014,84.653,185.263,166.344,240.345,369.943,435.351,571.051,640.663,61.907,63.201,25.544,114.979,164.024,89.821Z" style="fill:#fff;"/></svg>